<?xml version="1.0" encoding="utf-8"?>
<!-- Generator: Adobe Illustrator 24.3.0, SVG Export Plug-In . SVG Version: 6.00 Build 0)  -->
<svg version="1.1" id="Capa_1" xmlns="http://www.w3.org/2000/svg" xmlns:xlink="http://www.w3.org/1999/xlink" x="0px" y="0px"
	 viewBox="0 0 1920 1080" style="enable-background:new 0 0 1920 1080;" xml:space="preserve">
<style type="text/css">
	.st0{fill:#00C1F2;}
	.st1{fill:#282561;}
</style>
<g>
	<path class="st0" d="M449.4,616.5l243.2-310h110L610,548.3l211.1,225.9H702.8L449.4,499.3"/>
	<path class="st1" d="M1462,595.5c-5.8-12.8-13.1-24-22.1-33.8c-9-9.8-19.1-17.6-30.4-23.3c-11.3-5.7-22.7-9-34.2-9.9
		c11.1-0.4,21.4-3.7,30.7-10c9.4-6.2,17.4-13.8,24-22.8c6.6-9,11.8-18.8,15.6-29.5c3.8-10.8,5.8-20.8,5.8-30.1
		c0-26.6-3.7-48.2-10.9-65.1c-7.2-16.9-17-30.2-29.4-39.8c-12.3-9.6-26.9-16.2-43.5-19.9c-16.7-3.6-34.4-5.4-53.1-5.4h-159.7
		l-49.3,0L864,564.7l-98.6-105.2l-58.3,73.2L864,701l290.9-315.8h159.7c5.6,0,11.2,1.1,16.3,3.5c6.6,3.2,12.2,7.4,17,12.6
		c4.2,4.7,7.7,10.3,10.2,16.7c2.5,6.5,3.8,13.1,3.8,20c0,6.8-1.1,13.9-3.5,20.9c-2.4,7.1-5.8,13.4-10.2,19
		c-4.5,5.6-10,10.1-16.7,13.6c-6.6,3.4-14.4,5.1-23.3,5.1h-62.5l-73.1,79.4h142.6c20.5,0,36.6,5.3,48.3,16
		c11.8,10.6,17.6,23.9,17.6,39.7c0,7.6-1.5,15.2-4.5,22.7c-3,7.4-7,14.3-12.2,20.5c-5.2,6.3-11.3,11.3-18.3,14.9
		c-7,3.6-14.8,5.2-22.7,5.2h-77.8l-73.1,79.3h152.2c20.1,0,39-2.4,56.7-7c17.7-4.7,33.2-12.5,46.4-23.3
		c13.2-10.9,23.7-25.1,31.3-42.7c7.7-17.6,11.5-39.3,11.5-64.8C1470.6,621.9,1467.8,608.3,1462,595.5z"/>
	<polygon class="st0" points="1105.5,526.8 1105.5,774.2 1009.7,774.2 1009.7,628.9 	"/>
</g>
</svg>
